<?xml version="1.0" encoding="utf-8"?>
<!-- Generator: Adobe Illustrator 16.0.4, SVG Export Plug-In . SVG Version: 6.00 Build 0)  -->
<!DOCTYPE svg PUBLIC "-//W3C//DTD SVG 1.1//EN" "http://www.w3.org/Graphics/SVG/1.1/DTD/svg11.dtd">
<svg version="1.1" id="Layer_1" xmlns="http://www.w3.org/2000/svg" xmlns:xlink="http://www.w3.org/1999/xlink" x="0px" y="0px"
	 width="179px" height="176px" viewBox="112.5 -40.602 179 176" enable-background="new 112.5 -40.602 179 176"
	 xml:space="preserve">
<path fill="#F7B334" d="M147.225-0.437l47.09-24.529c2.938-1.535,7.812-1.675,10.83-0.319L261.266-0.12
	c3.018,1.354,5.486,5.171,5.486,8.479v59.804c0,3.309-2.467,7.132-5.481,8.491l-54.681,24.659v19.34l-59.361-43.705
	c-3.271-2.884-5.344-5.477-5.344-8.785V8.359C141.885,5.051,144.286,1.091,147.225-0.437z"/>
<polygon fill="#FFD89C" points="206.59,120.653 221.948,94.376 206.59,101.313 "/>
<path fill="#FFFFFF" d="M186.35,15.335v35.418h-3.969v0.033c-2.315,0.095-4.711,0.874-6.814,2.453
	c-4.938,3.716-6.335,10.203-3.113,14.489c3.223,4.288,9.842,4.751,14.784,1.036c3.34-2.508,5.011-6.276,4.78-9.782
	c0.042-0.199,0.068-0.402,0.068-0.614V27.372l26.86-5.739v22.095h-3.974v0.057c-2.313,0.096-4.714,0.874-6.812,2.451
	c-4.942,3.717-6.336,10.202-3.114,14.489c3.218,4.289,9.838,4.751,14.781,1.035c3.34-2.506,5.01-6.275,4.779-9.781
	c0.045-0.199,0.07-0.401,0.07-0.612V7.001L186.35,15.335z"/>
</svg>
